<?xml version="1.0" encoding="UTF-8"?>
<svg version="1.1" viewBox="0 0 1000 1000" width="1280" height="1280" xmlns="http://www.w3.org/2000/svg">
<path transform="translate(492,291)" d="m0 0h16l26 3 23 6 20 8 17 9 12 8 16 13 15 15 13 17 9 15 10 21 6 19 4 19 2 18v20l-3 24-4 17-7 20-10 20-12 18-11 13-16 16-13 10-16 10-16 8-15 6-23 6-23 3h-24l-23-3-23-6-24-10-14-8-14-10-11-9-17-17-10-13-10-16-11-23-7-22-4-23-1-11v-20l3-24 5-20 7-19 12-23 10-14 11-13 14-14 17-13 15-9 19-9 21-7 19-4zm-1 32-17 2-17 4-19 7-15 8-13 9-13 11-10 10-12 16-10 18-6 15-5 17-3 21v22l3 21 5 18 8 18 8 14 9 12 9 10 10 10 15 11 14 8 18 8 22 6 15 2h26l19-3 21-6 23-11 17-12 12-11 9-9 11-15 9-16 8-19 5-20 2-16v-22l-3-21-6-20-7-16-8-14-10-13-11-12-11-10-16-11-15-8-19-7-17-4-17-2z" fill="#07798E"/>
<path transform="translate(488,355)" d="m0 0h24l17 3 2 1 1 81 81 1 3 11 1 7v26l-3 16-1 2-25 1h-57v81l-5 2-12 2h-28l-16-3-1-1v-81h-55l-27-1-3-11-1-7v-26l3-16 1-2 81-1 1-81 12-3z" fill="#5CC4B2"/>
<path transform="translate(475,232)" d="m0 0h25l26 3 25 6 22 8 19 9 19 12 14 11 12 11 10 10 2 4-4-2-15-10-19-11-25-11-26-8-21-4-18-2h-29l-19 2-24 5-27 9-23 11-16 10-16 12-12 11-12 12-11 14-9 13-9 15-11 24-7 22-5 25-2 18v27l3 26 6 25 6 18 8 18 11 21 8 12 6 8-1 2-12-11-9-9-11-14-10-15-9-16-7-16-8-24-5-24-2-19v-26l3-26 6-25 6-18 10-22 12-20 14-19 16-17 8-8 11-9 18-13 21-12 21-9 22-7 25-5z" fill="#5FC5B3"/>
<path transform="translate(231,681)" d="m0 0h11v18h17v-17l1-1h11v46l-5 1h-6l-1-1-1-18h-16v18l-2 1h-9z" fill="#138293"/>
<path transform="translate(499,681)" d="m0 0h11v18l17-1v-16l1-1h11v46l-1 1h-10l-1-1v-17l-17-1v19h-11z" fill="#148194"/>
<path transform="translate(685,681)" d="m0 0h23l7 3 4 4 2 5-1 9-4 5-4 2 2 5 7 12v2h-10l-4-2-8-15-3-1v17l-1 1h-10zm11 10v11h10l3-2v-7l-2-2z" fill="#0E7E91"/>
<path transform="translate(637,681)" d="m0 0h13l5 12 11 31v4h-11l-3-9-17 1-3 8h-11l1-7 14-38zm6 14-5 14v2h11l-3-11-2-5z" fill="#0F7F91"/>
<path transform="translate(354,681)" d="m0 0h13l4 9 13 36v2h-11l-3-5-1-3-17-1-1 6-2 3h-11l1-6zm6 14-4 12v4h10l-2-9-3-7z" fill="#0E7E91"/>
<path transform="translate(575,681)" d="m0 0h13l8 4 6 7 1 5h-12l-4-4-9-1-5 3-2 4v11l2 4 7 3 8-2 2-3h13l-2 6-5 6-10 4h-9l-10-4-6-7-3-8v-10l4-9 5-5z" fill="#0B7D8F"/>
<path transform="translate(292,681)" d="m0 0h28v9l-16 1v8l14 1v8l-14 1-1 9h17v10h-28z" fill="#107F92"/>
<path transform="translate(741,681)" d="m0 0h28v9h-17l1 9 14 1v8l-14 1-1 9h17v10h-28z" fill="#0C7D90"/>
<path transform="translate(444,681)" d="m0 0h36v9h-12v37l-1 1h-10l-1-5v-32l-12-1z" fill="#128193"/>
<path transform="translate(402,681)" d="m0 0h11l1 1v37h14v9h-25l-1-1z" fill="#198695"/>
<path transform="translate(338,619)" d="m0 0" fill="#FDFDFD"/>
<path transform="translate(337,618)" d="m0 0" fill="#5CC4B2"/>
<path transform="translate(650,307)" d="m0 0" fill="#FDFDFD"/>
<path transform="translate(649,306)" d="m0 0" fill="#5CC4B2"/>
</svg>
