<?xml version="1.0" encoding="UTF-8"?>
<svg version="1.1" viewBox="0 0 800 844" width="1280" height="1280" xmlns="http://www.w3.org/2000/svg">
<path transform="translate(397,164)" d="m0 0h26l15 3 12 5 13 7 15 12 11 14 7 12 6 18 2 14v173l-2 13-4 13-8 16-11 14-10 9-14 9-12 5-13 4-10 2h-17l-20-4-19-8-11-8-8-7-10-11-8-14-5-11-3-10-2-11v-176l4-18 5-13 8-13 9-11 10-9 15-10 15-6z" fill="#fb6793"/>
<path transform="translate(257,351)" d="m0 0h11l8 3 5 5 4 7 1 4 1 52 3 21 6 18 10 19 8 11 10 11 8 7 12 9 15 8 19 7 16 3 22 1 18-2 18-5 17-7 14-9 10-8 14-14 9-13 8-16 6-16 4-20 1-16 1-45 6-9 8-5 4-1h10l8 3 5 5 3 4 2 6 1 8v27l-1 21-4 27-6 20-8 19-10 17-12 16-7 8h-2l-2 4-8 7-14 11-15 9-23 11-20 6-14 3h-3v33h54l7 4 6 7 3 6v12l-5 9-7 6-6 2-16 1h-126l-12-2-8-5-6-9-1-3v-10l5-10 6-5 6-3 53-1v-31l-28-7-16-6-16-8-15-9-13-11-8-7-9-9-11-14-9-14-8-16-6-14-5-18-3-16-1-13v-49l2-9 6-8 6-4z" fill="#fb6793"/>
</svg>
