<svg width="23" height="26" viewBox="0 0 23 26" fill="none" xmlns="http://www.w3.org/2000/svg">
<path opacity="0.5" d="M10.8192 25.174H11.8373C15.3399 25.174 17.0912 25.174 18.2299 24.0331C19.3685 22.8923 19.485 21.0209 19.718 17.2781L20.0537 11.8852C20.1802 9.85439 20.2434 8.839 19.6721 8.19556C19.1009 7.55212 18.1362 7.55212 16.2069 7.55212H6.44958C4.52027 7.55212 3.55561 7.55212 2.98438 8.19556C2.41314 8.839 2.47635 9.85439 2.60277 11.8852L2.93849 17.2781C3.17148 21.0209 3.28797 22.8923 4.42665 24.0331C5.56532 25.174 7.31663 25.174 10.8192 25.174Z" fill="#082567"/>
<path d="M0 5.24461C0 4.66531 0.434731 4.1957 0.971 4.1957L4.32449 4.19514C4.99079 4.1769 5.57859 3.71924 5.80532 3.04217C5.81128 3.02437 5.81813 3.00242 5.84272 2.92274L5.98721 2.45439C6.07564 2.16722 6.15267 1.91704 6.26047 1.69342C6.68635 0.809964 7.47428 0.196487 8.38481 0.0394221C8.61529 -0.000334694 8.85936 -0.000166561 9.13952 2.65002e-05H13.5174C13.7975 -0.000166561 14.0416 -0.000334694 14.2721 0.0394221C15.1826 0.196487 15.9705 0.809964 16.3964 1.69342C16.5042 1.91704 16.5812 2.16722 16.6697 2.45439L16.8142 2.92274C16.8387 3.00242 16.8456 3.02437 16.8516 3.04217C17.0783 3.71924 17.7827 4.17746 18.449 4.1957H21.6857C22.2219 4.1957 22.6567 4.66531 22.6567 5.24461C22.6567 5.8239 22.2219 6.29352 21.6857 6.29352H0.971C0.434731 6.29352 0 5.8239 0 5.24461Z" fill="#082567"/>
</svg>
