<svg width="26" height="24" viewBox="0 0 26 24" fill="none" xmlns="http://www.w3.org/2000/svg">
<path opacity="0.5" d="M12.587 0.552246C9.67849 0.552246 7.84181 3.80872 4.16846 10.3217L3.71072 11.1333C0.658191 16.5455 -0.868075 19.2516 0.511357 21.2302C1.89079 23.2089 5.30362 23.2089 12.1293 23.2089H13.0448C19.8704 23.2089 23.2833 23.2089 24.6627 21.2302C26.0421 19.2516 24.5159 16.5455 21.4633 11.1332L21.0056 10.3217C17.3323 3.80872 15.4956 0.552246 12.587 0.552246Z" fill="#FF3900"/>
<path d="M12.5871 5.90173C13.1084 5.90173 13.5311 6.32439 13.5311 6.84576V13.1393C13.5311 13.6607 13.1084 14.0833 12.5871 14.0833C12.0657 14.0833 11.643 13.6607 11.643 13.1393V6.84576C11.643 6.32439 12.0657 5.90173 12.5871 5.90173Z" fill="#FF3900"/>
<path d="M12.5871 18.1741C13.2822 18.1741 13.8458 17.6106 13.8458 16.9154C13.8458 16.2202 13.2822 15.6567 12.5871 15.6567C11.8919 15.6567 11.3284 16.2202 11.3284 16.9154C11.3284 17.6106 11.8919 18.1741 12.5871 18.1741Z" fill="#FF3900"/>
</svg>
