<svg width="52" height="24" viewBox="0 0 52 24" fill="none" xmlns="http://www.w3.org/2000/svg">
<path d="M25.0612 8.75465C23.2691 8.75465 21.8159 10.2079 21.8159 12C21.8159 16.6272 18.6861 17.5093 16.3981 17.5093H11.2341C9.44202 17.5093 7.98875 18.9626 7.98875 20.7547C7.98875 22.5467 9.44202 24 11.2341 24H16.3981C18.0065 24 19.3403 22.8297 19.598 21.2947C20.2257 17.9507 22.2774 16.7733 24.6958 17.7151C29.153 19.4513 27.7633 24 34.6837 24H39.7932C46.415 24 51.8873 18.6919 51.9249 12.0701C51.9632 5.42103 46.5656 0 39.9256 0H36.5907C28.4455 0 31.3806 8.75465 25.0612 8.75465ZM39.9256 6.4907C42.9632 6.4907 45.4349 8.96235 45.4349 12C45.4349 15.0376 42.9632 17.5093 39.9256 17.5093H33.8165C30.7789 17.5093 28.3072 15.0376 28.3072 12C28.3072 8.96235 30.7789 6.4907 33.8165 6.4907H39.9256ZM3.24535 15.2453C1.45327 15.2453 0 13.7921 0 12C0 10.2079 1.45327 8.75465 3.24535 8.75465C5.03743 8.75465 6.4907 10.2079 6.4907 12C6.4907 13.7921 5.03743 15.2453 3.24535 15.2453ZM11.2341 0H16.3981C18.1902 0 19.6434 1.45327 19.6434 3.24535C19.6434 5.03743 18.1902 6.4907 16.3981 6.4907H11.2341C9.44202 6.4907 7.98875 5.03743 7.98875 3.24535C7.98875 1.45327 9.44202 0 11.2341 0Z" fill="white"/>
</svg>
