<svg width="24" height="12" viewBox="0 0 24 12" fill="none" xmlns="http://www.w3.org/2000/svg">
<path d="M11.5834 4.04644C10.7551 4.04644 10.0834 4.71814 10.0834 5.54645C10.0834 7.68517 8.63677 8.09287 7.57927 8.09287H5.19244C4.36414 8.09287 3.69243 8.76458 3.69243 9.59288C3.69243 10.4212 4.36414 11.0929 5.19244 11.0929H7.57927C8.32267 11.0929 8.93918 10.552 9.05828 9.84248C9.34838 8.29687 10.2967 7.75267 11.4145 8.18797C13.4746 8.99048 12.8323 11.0929 16.0309 11.0929H18.3926C21.4532 11.0929 23.9825 8.63947 23.9999 5.57885C24.0176 2.50562 21.5228 0 18.4538 0H16.9123C13.1476 0 14.5042 4.04644 11.5834 4.04644ZM18.4538 3.00003C19.8578 3.00003 21.0002 4.14244 21.0002 5.54645C21.0002 6.95046 19.8578 8.09287 18.4538 8.09287H15.6301C14.2261 8.09287 13.0837 6.95046 13.0837 5.54645C13.0837 4.14244 14.2261 3.00003 15.6301 3.00003H18.4538ZM1.50001 7.04646C0.671706 7.04646 0 6.37476 0 5.54645C0 4.71814 0.671706 4.04644 1.50001 4.04644C2.32832 4.04644 3.00003 4.71814 3.00003 5.54645C3.00003 6.37476 2.32832 7.04646 1.50001 7.04646ZM5.19244 0H7.57927C8.40757 0 9.07928 0.671706 9.07928 1.50001C9.07928 2.32832 8.40757 3.00003 7.57927 3.00003H5.19244C4.36414 3.00003 3.69243 2.32832 3.69243 1.50001C3.69243 0.671706 4.36414 0 5.19244 0Z" fill="#102545"/>
</svg>
