<svg width="337" height="326" viewBox="0 0 337 326" fill="none" xmlns="http://www.w3.org/2000/svg">
<g opacity="0.8">
<g filter="url(#filter0_d_400_4553)">
<path d="M52.1436 291.851C116.335 325.399 220.419 325.399 284.611 291.851C348.802 258.303 348.802 203.875 284.611 170.35C220.419 136.826 116.335 136.795 52.1436 170.35C-12.0479 203.906 -12.0479 258.295 52.1436 291.851Z" fill="#F5F5F5" fill-opacity="0.05" shape-rendering="crispEdges"/>
</g>
<path d="M164.51 256.435L167.468 258.14C167.991 258.405 168.568 258.543 169.154 258.543C169.74 258.543 170.317 258.405 170.84 258.14L249.691 212.611C249.895 212.542 250.071 212.411 250.196 212.236C250.321 212.062 250.389 211.852 250.389 211.638C250.389 211.423 250.321 211.213 250.196 211.039C250.071 210.864 249.895 210.733 249.691 210.664L246.74 208.959C246.218 208.695 245.641 208.557 245.055 208.557C244.469 208.557 243.892 208.695 243.369 208.959L164.51 254.489C164.307 254.558 164.13 254.689 164.005 254.863C163.88 255.038 163.812 255.247 163.812 255.462C163.812 255.677 163.88 255.886 164.005 256.061C164.13 256.235 164.307 256.366 164.51 256.435Z" fill="#E0E0E0" fill-opacity="0.15"/>
<path d="M292.986 250.028C283.223 255.252 267.387 255.252 257.624 250.028C247.861 244.804 247.861 236.341 257.624 231.117C267.387 225.893 283.223 225.893 292.986 231.117C302.749 236.341 302.749 244.843 292.986 250.028Z" fill="#E0E0E0" fill-opacity="0.15"/>
<path d="M286.939 218.761C286.939 218.761 287.843 210.844 291.782 204.701C295.722 198.558 301.125 194.728 306.17 194.331C311.215 193.933 315.294 198.574 309.899 201.758C304.504 204.942 294.904 208.204 290.49 220.132L286.939 218.761Z" fill="#0D6EFD"/>
<path opacity="0.1" d="M286.939 218.761C286.939 218.761 287.843 210.844 291.782 204.701C295.722 198.558 301.125 194.728 306.17 194.331C311.215 193.933 315.294 198.574 309.899 201.758C304.504 204.942 294.904 208.204 290.49 220.132L286.939 218.761Z" fill="black"/>
<path d="M288.411 216.707H288.357C288.323 216.695 288.293 216.675 288.268 216.651C288.242 216.626 288.222 216.596 288.208 216.564C288.195 216.531 288.187 216.496 288.188 216.46C288.188 216.425 288.195 216.39 288.209 216.357C293.534 203.239 303.671 197.758 308.287 196.699C308.322 196.691 308.357 196.689 308.392 196.695C308.427 196.7 308.46 196.713 308.49 196.731C308.52 196.75 308.546 196.774 308.567 196.802C308.587 196.831 308.602 196.863 308.611 196.897C308.619 196.932 308.62 196.967 308.614 197.002C308.609 197.037 308.597 197.07 308.578 197.1C308.56 197.13 308.536 197.156 308.507 197.177C308.479 197.197 308.446 197.212 308.412 197.22C303.889 198.264 293.947 203.643 288.707 216.56C288.681 216.613 288.637 216.657 288.584 216.684C288.53 216.71 288.47 216.719 288.411 216.707Z" fill="white"/>
<path d="M315.388 216.862C314.929 217.89 313.831 218.419 312.757 218.847C311.683 219.276 310.577 219.719 310.009 220.7C308.872 222.662 310.741 225.434 309.518 227.349C309.232 227.731 308.871 228.052 308.457 228.291C308.044 228.531 307.587 228.684 307.112 228.743C306.334 228.891 305.555 228.883 304.777 228.953C304.402 228.944 304.028 228.916 303.656 228.867C302.563 228.623 301.42 228.743 300.401 229.21C298.844 230.09 298.354 232.067 297.404 233.585C296.818 234.486 296.043 235.248 295.133 235.82C294.223 236.391 293.199 236.758 292.133 236.894C291.225 237.079 290.284 237.018 289.408 236.715L289.26 236.622C289.161 236.518 289.068 236.409 288.98 236.295V236.248C288.7 235.228 289.151 234.161 289.175 233.134C289.179 233.072 289.179 233.009 289.175 232.947C289.136 231.717 289.097 230.502 289.073 229.28C289.011 227.03 288.988 224.772 289.003 222.522C289.003 221.066 288.84 219.462 289.463 218.084C290.148 216.574 291.853 216.527 292.491 215.056C292.748 214.456 292.888 213.826 293.138 213.226C293.524 212.348 294.145 211.593 294.931 211.044C295.718 210.494 296.641 210.172 297.599 210.112C300.573 209.964 303.235 212.37 306.209 212.152C306.974 212.045 307.733 211.899 308.483 211.716C310.888 211.264 313.676 211.949 315.03 213.989C315.318 214.403 315.501 214.881 315.564 215.381C315.626 215.882 315.566 216.39 315.388 216.862Z" fill="#0D6EFD"/>
<path d="M288.668 231.545C288.636 231.537 288.605 231.523 288.579 231.503C288.552 231.482 288.529 231.457 288.513 231.428C288.496 231.399 288.485 231.367 288.481 231.333C288.477 231.3 288.48 231.266 288.489 231.234C292.592 215.819 308.833 213.592 312.624 213.865C312.658 213.866 312.691 213.875 312.721 213.89C312.751 213.905 312.777 213.926 312.799 213.951C312.821 213.977 312.837 214.006 312.848 214.038C312.858 214.07 312.861 214.104 312.858 214.137C312.857 214.17 312.849 214.203 312.835 214.233C312.821 214.263 312.801 214.289 312.776 214.311C312.752 214.333 312.723 214.35 312.691 214.36C312.66 214.37 312.626 214.374 312.593 214.371C308.872 214.106 292.989 216.286 288.972 231.366C288.954 231.429 288.912 231.483 288.856 231.516C288.799 231.549 288.732 231.56 288.668 231.545Z" fill="white"/>
<path d="M306.715 223.735C306.665 223.726 306.619 223.702 306.583 223.665C305.082 222.366 303.313 221.414 301.403 220.875C299.492 220.337 297.486 220.226 295.528 220.551C295.495 220.557 295.461 220.555 295.429 220.548C295.397 220.54 295.366 220.526 295.339 220.507C295.312 220.487 295.29 220.462 295.273 220.434C295.256 220.405 295.244 220.374 295.24 220.341C295.231 220.274 295.249 220.206 295.289 220.152C295.33 220.098 295.391 220.062 295.458 220.053C297.493 219.716 299.578 219.834 301.563 220.396C303.548 220.959 305.385 221.953 306.941 223.307C306.977 223.346 307 223.395 307.007 223.448C307.014 223.5 307.004 223.554 306.979 223.601C306.955 223.648 306.916 223.686 306.869 223.71C306.821 223.734 306.768 223.743 306.715 223.735Z" fill="white"/>
<path d="M180.442 145.491V153.277L46.088 230.828L41.9539 233.164C41.0153 232.526 40.2401 231.677 39.6909 230.684C39.1418 229.691 38.8341 228.583 38.793 227.449V96.8475C38.802 96.6142 38.8689 96.3868 38.9876 96.1857C39.1045 95.98 39.2703 95.8062 39.4703 95.6797L70.0907 77.9988C70.4644 77.7886 72.6443 78.6995 73.0025 78.9175L73.236 79.0498C73.4385 79.1796 73.6197 79.3397 73.7732 79.5248C73.9447 79.7121 74.0771 79.9318 74.1625 80.171L76.9342 88.1745L176.589 28.8022C176.794 28.7073 177.017 28.6582 177.243 28.6582C177.468 28.6582 177.692 28.7073 177.897 28.8022L179.75 29.8766C179.947 30.0004 180.11 30.1717 180.224 30.3749C180.347 30.5772 180.414 30.8081 180.419 31.0444V145.491H180.442Z" fill="#263238"/>
<path d="M180.443 153.246L41.9541 233.164V97.8908L73.7735 79.5248C73.9449 79.7121 74.0773 79.9318 74.1627 80.171L76.9344 88.1745L77.4638 89.6927L180.232 30.3516C180.355 30.5539 180.422 30.7848 180.427 31.0211L180.443 153.246Z" fill="#37474F"/>
<path d="M73.7739 79.5249L41.9546 97.8909L38.9883 96.1859C39.1052 95.9801 39.271 95.8063 39.471 95.6799L70.0914 77.999C70.2973 77.8931 70.5255 77.8379 70.757 77.8379C70.9886 77.8379 71.2168 77.8931 71.4227 77.999L73.2367 79.0422C73.4397 79.1743 73.621 79.3372 73.7739 79.5249Z" fill="#455A64"/>
<path d="M180.24 30.3515L77.4718 89.6926L76.9424 88.1745L176.597 28.8022C176.802 28.7073 177.025 28.6582 177.251 28.6582C177.477 28.6582 177.7 28.7073 177.905 28.8022L179.758 29.8766C179.955 29.9928 180.121 30.1559 180.24 30.3515Z" fill="#455A64"/>
<path d="M84.5018 178.175C84.0744 177.887 83.7212 177.502 83.4709 177.052C83.2205 176.601 83.0803 176.098 83.0615 175.583V46.9194C83.0923 46.3863 83.2495 45.8681 83.5203 45.4078C83.7911 44.9475 84.1676 44.5583 84.6186 44.2724L160.621 0.439985C161.063 0.16222 161.573 0.0102793 162.095 0.000503447C162.617 -0.00927242 163.132 0.123485 163.584 0.384501C164.037 0.645517 164.409 1.02492 164.662 1.48189C164.915 1.93887 165.039 2.45613 165.02 2.97806V131.641C164.988 132.174 164.83 132.692 164.559 133.152C164.288 133.612 163.913 134.002 163.462 134.288L87.4681 178.121C87.013 178.363 86.507 178.494 85.9915 178.504C85.476 178.513 84.9655 178.401 84.5018 178.175Z" fill="#FAFAFA"/>
<path d="M87.4672 178.12L163.469 134.288C163.92 134.001 164.295 133.612 164.566 133.152C164.837 132.691 164.994 132.174 165.026 131.641V2.97771C165.026 2.00452 164.341 1.60746 163.469 2.09016L87.4594 45.9303C87.0093 46.2172 86.6334 46.6066 86.3628 47.0667C86.0921 47.5269 85.9343 48.0446 85.9023 48.5774V177.241C85.9335 178.214 86.6186 178.611 87.4672 178.12Z" fill="#F0F0F0"/>
<path d="M95.7912 51.038L153.186 17.9029C153.926 17.4747 154.533 17.8173 154.533 18.6815V19.2186C154.506 19.6861 154.371 20.1409 154.137 20.5465C153.903 20.9521 153.577 21.2972 153.186 21.5543L95.7912 54.6894C95.0127 55.1176 94.4443 54.7673 94.4443 53.9109V53.3737C94.4696 52.9059 94.6047 52.4507 94.8387 52.0449C95.0727 51.6391 95.399 51.2942 95.7912 51.038Z" fill="#E0E0E0"/>
<path d="M95.7912 60.1538L153.186 27.0187C153.926 26.5905 154.533 26.9408 154.533 27.7972V28.3344C154.508 28.8022 154.372 29.2574 154.138 29.6632C153.904 30.069 153.578 30.4139 153.186 30.6701L95.7912 63.8052C95.0127 64.2334 94.4443 63.8831 94.4443 63.0266V62.4894C94.4708 62.022 94.6065 61.5672 94.8403 61.1616C95.0742 60.756 95.3999 60.4109 95.7912 60.1538Z" fill="#E0E0E0"/>
<path d="M95.7912 69.271L153.186 36.1359C153.926 35.7077 154.533 36.058 154.533 36.9144V37.4516C154.508 37.9194 154.372 38.3746 154.138 38.7804C153.904 39.1862 153.578 39.5311 153.186 39.7873L95.7912 72.9224C95.0127 73.3584 94.4443 73.008 94.4443 72.1438V71.6066C94.4708 71.1392 94.6065 70.6844 94.8403 70.2788C95.0742 69.8732 95.3999 69.5281 95.7912 69.271Z" fill="#E0E0E0"/>
<path d="M95.7912 78.3891L153.186 45.2618C153.926 44.8258 154.533 45.1761 154.533 46.0403V46.5775C154.506 47.0449 154.37 47.4994 154.136 47.9049C153.902 48.3104 153.577 48.6557 153.186 48.9132L95.7912 82.0483C95.0127 82.4765 94.4443 82.1261 94.4443 81.2697V80.7248C94.4714 80.2574 94.6073 79.8029 94.8412 79.3974C95.075 78.9919 95.4003 78.6466 95.7912 78.3891Z" fill="#E0E0E0"/>
<path d="M95.7912 87.5126L153.186 54.3775C153.926 53.9493 154.533 54.2919 154.533 55.1561V55.6933C154.506 56.1607 154.371 56.6155 154.137 57.0211C153.903 57.4267 153.577 57.7718 153.186 58.0289L95.7912 91.164C95.0127 91.5922 94.4443 91.2419 94.4443 90.3855V89.8483C94.4696 89.3805 94.6047 88.9253 94.8387 88.5195C95.0727 88.1137 95.399 87.7688 95.7912 87.5126Z" fill="#E0E0E0"/>
<path d="M95.7912 96.6996L153.186 63.5645C153.926 63.1285 154.533 63.4789 154.533 64.3431V64.8803C154.506 65.3476 154.37 65.8021 154.136 66.2076C153.902 66.6131 153.577 66.9584 153.186 67.2159L95.7912 100.351C95.0127 100.779 94.4443 100.429 94.4443 99.5725V99.0353C94.4696 98.5675 94.6047 98.1123 94.8387 97.7065C95.0727 97.3007 95.399 96.9558 95.7912 96.6996Z" fill="#E0E0E0"/>
<path d="M95.7912 105.817L153.186 72.6822C153.926 72.254 154.533 72.5966 154.533 73.4608V73.998C154.506 74.4654 154.371 74.9202 154.137 75.3258C153.903 75.7314 153.577 76.0765 153.186 76.3336L95.7912 109.469C95.0127 109.897 94.4443 109.547 94.4443 108.69V108.153C94.4696 107.685 94.6047 107.23 94.8387 106.824C95.0727 106.418 95.399 106.073 95.7912 105.817Z" fill="#E0E0E0"/>
<path d="M95.7912 114.935L153.186 81.7999C153.926 81.3717 154.533 81.7221 154.533 82.5785V83.1157C154.508 83.5834 154.372 84.0387 154.138 84.4444C153.904 84.8502 153.578 85.1952 153.186 85.4513L95.7912 118.586C95.0127 119.015 94.4443 118.672 94.4443 117.808V117.271C94.4708 116.803 94.6065 116.348 94.8403 115.943C95.0742 115.537 95.3999 115.192 95.7912 114.935Z" fill="#E0E0E0"/>
<path d="M95.7912 124.05L153.186 90.9152C153.926 90.487 154.533 90.8373 154.533 91.6937V92.2465C154.508 92.7142 154.372 93.1695 154.138 93.5753C153.904 93.981 153.578 94.326 153.186 94.5822L95.7912 127.717C95.0127 128.153 94.4443 127.803 94.4443 126.939V126.402C94.469 125.932 94.6038 125.474 94.8377 125.065C95.0717 124.657 95.3983 124.309 95.7912 124.05Z" fill="#E0E0E0"/>
<path d="M95.7912 133.176L153.186 100.033C153.926 99.5973 154.533 99.9476 154.533 100.812V101.349C154.506 101.816 154.37 102.271 154.136 102.676C153.902 103.082 153.577 103.427 153.186 103.685L95.7912 136.82C95.0127 137.248 94.4443 136.898 94.4443 136.041V135.504C94.4708 135.038 94.6065 134.584 94.8404 134.18C95.0744 133.775 95.4001 133.432 95.7912 133.176Z" fill="#E0E0E0"/>
<path d="M95.7912 142.332L153.186 109.196C153.926 108.768 154.533 109.119 154.533 109.975V110.512C154.506 110.98 154.371 111.434 154.137 111.84C153.903 112.246 153.577 112.591 153.186 112.848L95.7912 145.967C95.0127 146.396 94.4443 146.045 94.4443 145.189V144.652C94.472 144.187 94.6082 143.734 94.8421 143.332C95.076 142.929 95.4011 142.586 95.7912 142.332Z" fill="#E0E0E0"/>
<path d="M95.7912 151.417L153.186 118.282C153.926 117.854 154.533 118.205 154.533 119.061V119.598C154.508 120.066 154.372 120.521 154.138 120.927C153.904 121.333 153.578 121.678 153.186 121.934L95.7912 155.069C95.0127 155.497 94.4443 155.155 94.4443 154.29V153.753C94.4708 153.286 94.6065 152.831 94.8403 152.425C95.0742 152.02 95.3999 151.675 95.7912 151.417Z" fill="#E0E0E0"/>
<path d="M95.7912 160.566L153.186 127.431C153.926 127.003 154.533 127.353 154.533 128.209V128.754C154.506 129.222 154.37 129.676 154.136 130.082C153.902 130.487 153.577 130.832 153.186 131.09L95.7912 164.217C95.0127 164.653 94.4443 164.303 94.4443 163.439V162.902C94.4714 162.434 94.6073 161.98 94.8412 161.574C95.075 161.169 95.4003 160.823 95.7912 160.566Z" fill="#E0E0E0"/>
<path d="M87.2652 178.221C86.8211 178.457 86.3225 178.572 85.8198 178.554C85.3172 178.535 84.8283 178.385 84.4025 178.117C83.9767 177.849 83.6292 177.474 83.395 177.029C83.1608 176.584 83.0483 176.084 83.0688 175.582V46.9264C83.0876 46.3937 83.2402 45.8743 83.5126 45.416L86.3854 47.0743C86.1091 47.5285 85.9537 48.0457 85.9338 48.5769V177.24C85.9338 178.136 86.5178 178.54 87.2652 178.221Z" fill="#E0E0E0"/>
<path d="M95.2606 184.281C94.8332 183.993 94.4799 183.608 94.2296 183.157C93.9793 182.707 93.8391 182.203 93.8203 181.688V53.0249C93.8511 52.4918 94.0083 51.9736 94.2791 51.5133C94.5499 51.053 94.9264 50.6638 95.3774 50.3778L171.38 6.54545C171.822 6.26769 172.331 6.11575 172.854 6.10597C173.376 6.0962 173.891 6.22896 174.343 6.48997C174.796 6.75099 175.168 7.13038 175.421 7.58736C175.674 8.04433 175.797 8.5616 175.778 9.08353V137.747C175.746 138.28 175.589 138.797 175.318 139.257C175.047 139.718 174.671 140.107 174.221 140.394L98.2191 184.226C97.765 184.467 97.2604 184.598 96.7464 184.607C96.2324 184.617 95.7233 184.505 95.2606 184.281Z" fill="#FAFAFA"/>
<path d="M98.226 184.226L174.228 140.393C174.678 140.107 175.054 139.717 175.325 139.257C175.595 138.797 175.753 138.279 175.785 137.746V9.08318C175.785 8.10999 175.1 7.71293 174.228 8.19563L98.2182 52.0358C97.768 52.3227 97.3922 52.7121 97.1216 53.1722C96.8509 53.6323 96.6931 54.15 96.6611 54.6829V183.338C96.6923 184.319 97.3774 184.716 98.226 184.226Z" fill="#F0F0F0"/>
<path d="M106.55 57.1435L163.945 24.0084C164.723 23.5802 165.292 23.9227 165.292 24.7869V25.293C165.265 25.7604 165.13 26.2152 164.896 26.6208C164.662 27.0264 164.336 27.3716 163.945 27.6286L106.55 60.7949C105.771 61.2231 105.203 60.8727 105.203 60.0163V59.4791C105.228 59.0114 105.364 58.5562 105.598 58.1504C105.832 57.7446 106.158 57.3996 106.55 57.1435Z" fill="#E0E0E0"/>
<path d="M106.55 66.2593L163.945 33.1242C164.723 32.696 165.292 33.0463 165.292 33.9027V34.4399C165.266 34.9077 165.131 35.3629 164.897 35.7687C164.663 36.1745 164.337 36.5194 163.945 36.7756L106.55 69.9107C105.771 70.3389 105.203 69.9963 105.203 69.1321V68.5949C105.23 68.1275 105.365 67.6727 105.599 67.2671C105.833 66.8615 106.159 66.5163 106.55 66.2593Z" fill="#E0E0E0"/>
<path d="M106.55 75.3765L163.945 42.2413C164.723 41.8131 165.292 42.1635 165.292 43.0199V43.5571C165.266 44.0248 165.131 44.4801 164.897 44.8858C164.663 45.2916 164.337 45.6366 163.945 45.8928L106.55 79.0123C105.771 79.4483 105.203 79.0979 105.203 78.2337V77.6965C105.232 77.2318 105.369 76.7801 105.603 76.3774C105.836 75.9747 106.161 75.632 106.55 75.3765Z" fill="#E0E0E0"/>
<path d="M106.55 84.5024L163.945 51.3673C164.723 50.9313 165.292 51.2816 165.292 52.1458V52.683C165.265 53.1503 165.129 53.6049 164.895 54.0104C164.661 54.4159 164.336 54.7611 163.945 55.0187L106.55 88.1538C105.771 88.582 105.203 88.2316 105.203 87.3752V86.838C105.228 86.3703 105.364 85.9151 105.598 85.5093C105.832 85.1035 106.158 84.7585 106.55 84.5024Z" fill="#E0E0E0"/>
<path d="M106.55 93.6181L163.945 60.483C164.723 60.0548 165.292 60.3973 165.292 61.2615V61.7987C165.265 62.2662 165.13 62.7209 164.896 63.1265C164.662 63.5321 164.336 63.8773 163.945 64.1344L106.55 97.2695C105.771 97.6977 105.203 97.3473 105.203 96.4909V95.9537C105.228 95.486 105.364 95.0308 105.598 94.625C105.832 94.2192 106.158 93.8742 106.55 93.6181Z" fill="#E0E0E0"/>
<path d="M106.55 102.805L163.945 69.67C164.723 69.234 165.292 69.5844 165.292 70.4485V70.9857C165.265 71.4531 165.129 71.9076 164.895 72.3131C164.661 72.7186 164.336 73.0639 163.945 73.3214L106.55 106.457C105.771 106.885 105.203 106.534 105.203 105.678V105.141C105.228 104.673 105.364 104.218 105.598 103.812C105.832 103.406 106.158 103.061 106.55 102.805Z" fill="#E0E0E0"/>
<path d="M106.55 111.923L163.945 78.7877C164.723 78.3595 165.292 78.702 165.292 79.5662V80.1034C165.265 80.5709 165.13 81.0256 164.896 81.4312C164.662 81.8368 164.336 82.182 163.945 82.4391L106.55 115.605C105.771 116.034 105.203 115.683 105.203 114.827V114.29C105.224 113.816 105.356 113.355 105.591 112.943C105.825 112.532 106.154 112.182 106.55 111.923Z" fill="#E0E0E0"/>
<path d="M106.55 121.054L163.945 87.9191C164.723 87.4909 165.292 87.8412 165.292 88.6976V89.2348C165.266 89.7026 165.131 90.1578 164.897 90.5636C164.663 90.9694 164.337 91.3143 163.945 91.5705L106.55 124.706C105.771 125.134 105.203 124.791 105.203 123.927V123.39C105.23 122.922 105.365 122.468 105.599 122.062C105.833 121.656 106.159 121.311 106.55 121.054Z" fill="#E0E0E0"/>
<path d="M106.55 130.156L163.945 97.0206C164.723 96.5924 165.292 96.9428 165.292 97.7992V98.3364C165.266 98.8041 165.131 99.2594 164.897 99.6651C164.663 100.071 164.337 100.416 163.945 100.672L106.55 133.807C105.771 134.243 105.203 133.893 105.203 133.029V132.491C105.23 132.024 105.366 131.57 105.6 131.164C105.834 130.759 106.159 130.413 106.55 130.156Z" fill="#E0E0E0"/>
<path d="M106.55 139.282L163.945 106.147C164.723 105.711 165.292 106.061 165.292 106.925V107.462C165.265 107.93 165.129 108.384 164.895 108.79C164.661 109.195 164.336 109.54 163.945 109.798L106.55 142.933C105.771 143.361 105.203 143.011 105.203 142.155V141.617C105.228 141.15 105.364 140.694 105.598 140.289C105.832 139.883 106.158 139.538 106.55 139.282Z" fill="#E0E0E0"/>
<path d="M106.55 148.437L163.945 115.302C164.723 114.874 165.292 115.224 165.292 116.08V116.618C165.266 117.085 165.131 117.541 164.897 117.946C164.663 118.352 164.337 118.697 163.945 118.953L106.55 152.088C105.771 152.517 105.203 152.166 105.203 151.31V150.773C105.228 150.305 105.364 149.85 105.598 149.444C105.832 149.038 106.158 148.693 106.55 148.437Z" fill="#E0E0E0"/>
<path d="M106.55 157.552L163.945 124.417C164.723 123.989 165.292 124.339 165.292 125.196V125.725C165.266 126.193 165.131 126.648 164.897 127.054C164.663 127.46 164.337 127.805 163.945 128.061L106.55 161.196C105.771 161.624 105.203 161.281 105.203 160.417V159.88C105.231 159.414 105.367 158.961 105.601 158.557C105.835 158.152 106.16 157.809 106.55 157.552Z" fill="#E0E0E0"/>
<path d="M106.55 166.669L163.945 133.511C164.723 133.083 165.292 133.433 165.292 134.289V134.834C165.265 135.302 165.129 135.756 164.895 136.162C164.661 136.567 164.336 136.913 163.945 137.17L106.55 170.297C105.771 170.733 105.203 170.383 105.203 169.519V168.982C105.234 168.518 105.371 168.068 105.605 167.667C105.839 167.266 106.162 166.925 106.55 166.669Z" fill="#E0E0E0"/>
<path d="M98.024 184.327C97.5799 184.563 97.0813 184.678 96.5786 184.659C96.076 184.641 95.587 184.49 95.1613 184.223C94.7355 183.955 94.3879 183.579 94.1538 183.134C93.9196 182.689 93.8071 182.19 93.8276 181.687V53.0319C93.8464 52.4991 93.999 51.9797 94.2713 51.5215L97.1442 53.1798C96.8679 53.6339 96.7124 54.1512 96.6926 54.6824V183.338C96.6926 184.241 97.2765 184.646 98.024 184.327Z" fill="#E0E0E0"/>
<path d="M208.727 46.3118L186.523 142.463L184.476 151.307C183.796 153.667 182.29 155.704 180.232 157.045L48.4861 233.078C47.5283 233.598 46.4612 233.883 45.3719 233.911C44.1883 233.994 43.005 233.746 41.9541 233.195L42.6314 230.26L42.7015 229.972L43.4411 226.756L46.6643 212.805L67.0779 124.408C67.1057 124.294 67.1475 124.185 67.2025 124.081C67.257 123.98 67.3193 123.879 67.3816 123.785V123.739C67.5225 123.548 67.6966 123.385 67.8954 123.256L180.435 58.3014L205.06 44.0851C205.27 43.9778 205.502 43.9219 205.738 43.9219C205.973 43.9219 206.205 43.9778 206.415 44.0851L208.229 45.1284C208.421 45.2532 208.571 45.4326 208.66 45.6436C208.749 45.8545 208.772 46.0873 208.727 46.3118Z" fill="#37474F"/>
<path d="M208.75 46.086C208.75 45.8135 208.532 45.7278 208.229 45.9069L71.0869 125.085C70.8848 125.21 70.71 125.374 70.573 125.568L67.4121 123.739C67.5531 123.548 67.7271 123.385 67.926 123.256L205.06 44.0851C205.27 43.9778 205.502 43.9219 205.737 43.9219C205.973 43.9219 206.205 43.9778 206.415 44.0851L208.229 45.1284C208.387 45.233 208.518 45.3751 208.609 45.5421C208.7 45.709 208.748 45.8958 208.75 46.086Z" fill="#455A64"/>
<path d="M70.5736 125.57C70.4846 125.69 70.4064 125.818 70.3401 125.951C70.2985 126.042 70.2647 126.136 70.2388 126.232L50.7206 210.767L46.6098 228.58L46.0882 230.83L45.3719 233.944C44.1883 234.027 43.005 233.779 41.9541 233.228L42.6314 230.293L42.7015 230.005L43.4411 226.789L46.6643 212.838L67.0779 124.441C67.1057 124.327 67.1475 124.217 67.2025 124.114C67.257 124.013 67.3193 123.912 67.3816 123.818V123.771L70.5736 125.57Z" fill="#263238"/>
<path d="M46.7813 225.036C46.9446 225.13 47.0735 225.273 47.1492 225.445C47.2249 225.618 47.2433 225.81 47.2017 225.994L46.0884 230.828L45.5044 233.234C45.4573 233.435 45.3409 233.613 45.1759 233.737C45.0108 233.861 44.8074 233.922 44.6013 233.911C43.6666 233.89 42.7508 233.645 41.9309 233.195C40.9923 232.558 40.2171 231.708 39.6679 230.715C39.1188 229.723 38.8112 228.614 38.77 227.481V221.937C38.7649 221.781 38.8019 221.626 38.8771 221.489C38.9523 221.352 39.063 221.238 39.1975 221.159C39.3319 221.079 39.4853 221.037 39.6416 221.037C39.7979 221.037 39.9513 221.079 40.0857 221.159L41.4949 221.937C41.6293 222.018 41.7403 222.132 41.8168 222.268C41.8933 222.405 41.9327 222.559 41.9309 222.716V225.472C41.9223 225.692 41.9973 225.907 42.1408 226.074C42.2843 226.241 42.4858 226.348 42.7046 226.373C42.9235 226.397 43.1436 226.338 43.3207 226.207C43.4978 226.076 43.6187 225.883 43.6593 225.667L43.8929 224.647C43.9244 224.514 43.9866 224.39 44.0744 224.285C44.1622 224.18 44.2733 224.097 44.3987 224.043C44.5242 223.988 44.6606 223.964 44.7971 223.972C44.9336 223.979 45.0665 224.018 45.1852 224.086L46.7813 225.036Z" fill="#263238"/>
<path d="M75.8675 204.49L68.3701 200.161L68.2922 200.115C64.563 198.005 59.4479 198.316 53.7878 201.586C48.4859 204.638 43.6667 209.738 40.0153 215.6C35.8033 222.389 33.1562 230.252 33.1562 237.298C33.1562 243.869 35.4919 248.486 39.1744 250.643L46.7887 254.987C50.5491 257.385 55.8588 257.175 61.7446 253.772C73.1426 247.194 82.384 231.194 82.384 218.029C82.384 211.24 79.8771 206.522 75.8675 204.49Z" fill="#0D6EFD"/>
<path opacity="0.1" d="M46.6407 254.963L39.1744 250.697C35.453 248.54 33.1562 243.924 33.1562 237.353C33.1562 230.307 35.8033 222.451 40.0153 215.662L47.9799 220.256C43.7679 227.045 41.1286 234.892 41.1286 241.93C41.1052 248.206 43.2073 252.698 46.6407 254.963Z" fill="black"/>
<path opacity="0.4" d="M75.7121 204.404C72.0373 202.621 67.148 203.073 61.7449 206.179C56.3417 209.286 51.6237 214.346 47.9568 220.248L39.9922 215.654C43.6358 209.753 48.4706 204.661 53.7647 201.64C59.4248 198.371 64.5399 198.059 68.2691 200.161L68.347 200.208L75.7121 204.404Z" fill="white"/>
<path d="M64.5942 232.129V239.392C64.5943 239.762 64.5091 240.127 64.3451 240.459C64.2317 240.775 64.022 241.047 63.7456 241.238L59.7672 243.534C59.6784 243.6 59.5689 243.631 59.4588 243.623C59.3487 243.614 59.2454 243.566 59.1678 243.488C59.0767 243.381 59.0078 243.257 58.965 243.123C58.9223 242.99 58.9065 242.849 58.9186 242.709V235.476L54.0215 238.295C53.9342 238.363 53.8249 238.396 53.7144 238.389C53.6038 238.382 53.4998 238.335 53.422 238.256C53.331 238.149 53.2621 238.025 53.2193 237.891C53.1766 237.758 53.1608 237.617 53.1729 237.477V232.572C53.1775 232.2 53.2624 231.834 53.422 231.498C53.5474 231.201 53.7555 230.947 54.0215 230.766L58.9186 227.94V220.707C58.9232 220.335 59.0081 219.969 59.1678 219.633C59.2903 219.335 59.499 219.08 59.7672 218.901L63.7456 216.565C63.8342 216.5 63.9428 216.468 64.0525 216.476C64.1621 216.483 64.2657 216.528 64.3451 216.604C64.4369 216.711 64.5063 216.834 64.5491 216.968C64.5919 217.102 64.6073 217.243 64.5942 217.383V224.6L69.4602 221.797C69.5475 221.729 69.6568 221.695 69.7673 221.702C69.8779 221.71 69.9819 221.757 70.0597 221.836C70.1507 221.943 70.2196 222.067 70.2624 222.2C70.3052 222.334 70.3209 222.475 70.3088 222.615V227.519C70.3043 227.891 70.2193 228.258 70.0597 228.594C69.9344 228.89 69.7262 229.144 69.4602 229.326L64.5942 232.129Z" fill="white"/>
<path d="M264.712 119.645L255.611 119.389C255.004 118.867 245.451 108.084 245.451 108.084C245.451 108.084 242.01 113.534 241.955 113.853C241.901 114.172 251.298 124.278 252.256 125.298C252.518 125.636 252.855 125.91 253.239 126.099C253.624 126.288 254.046 126.387 254.474 126.388C256.942 126.536 266.153 127.166 266.153 127.166L264.712 119.645Z" fill="#B16668"/>
<path d="M167.573 256.296C167.148 256.007 166.796 255.621 166.547 255.171C166.298 254.721 166.159 254.218 166.141 253.704V132.732C166.173 132.2 166.33 131.682 166.601 131.222C166.872 130.762 167.248 130.372 167.698 130.085L243.7 86.2452C244.156 86.0064 244.662 85.8772 245.177 85.8677C245.691 85.8583 246.201 85.9688 246.666 86.1907C247.093 86.4808 247.445 86.8675 247.694 87.3193C247.943 87.7712 248.081 88.2754 248.099 88.791V209.754C248.068 210.289 247.911 210.808 247.64 211.269C247.369 211.731 246.993 212.122 246.542 212.409L170.539 256.242C170.084 256.482 169.578 256.612 169.063 256.622C168.548 256.631 168.037 256.52 167.573 256.296Z" fill="#0D6EFD"/>
<path opacity="0.15" d="M170.111 256.412L170.267 256.365C170.235 256.388 170.197 256.404 170.158 256.412C170.067 256.449 169.973 256.48 169.878 256.505H169.722C169.607 256.531 169.49 256.549 169.372 256.559C169.237 256.567 169.102 256.567 168.967 256.559C168.482 256.57 168.003 256.458 167.573 256.232C167.261 256.032 166.995 255.766 166.795 255.454C166.407 254.924 166.187 254.289 166.164 253.632V132.731C166.163 132.467 166.202 132.204 166.281 131.952C166.319 131.822 166.366 131.695 166.421 131.571C166.475 131.443 166.538 131.318 166.608 131.197L169.473 132.856L169.403 132.972C169.169 133.398 169.039 133.873 169.021 134.358V255.361C169.02 255.516 169.041 255.67 169.084 255.82C169.134 256.001 169.237 256.164 169.379 256.287C169.473 256.356 169.578 256.406 169.691 256.435H169.87C169.94 256.446 170.011 256.446 170.08 256.435C170.093 256.431 170.104 256.423 170.111 256.412Z" fill="black"/>
<path opacity="0.3" d="M248.044 88.4639C247.919 87.6853 247.265 87.4284 246.541 87.8644L170.531 131.697C170.082 131.984 169.711 132.377 169.449 132.841L166.584 131.175C166.839 130.708 167.212 130.316 167.666 130.038L243.668 86.1983C244.125 85.9595 244.63 85.8303 245.145 85.8209C245.66 85.8114 246.17 85.922 246.635 86.1438C247.022 86.4067 247.349 86.7499 247.592 87.1503C247.835 87.5506 247.989 87.9986 248.044 88.4639Z" fill="white"/>
<path d="M178.87 136.811L236.249 103.676C237.028 103.24 237.596 103.59 237.596 104.454V104.992C237.57 105.459 237.435 105.914 237.201 106.32C236.967 106.726 236.641 107.071 236.249 107.327L178.855 140.462C178.076 140.891 177.508 140.54 177.508 139.684V139.147C177.534 138.677 177.671 138.221 177.908 137.815C178.145 137.409 178.475 137.065 178.87 136.811Z" fill="#FAFAFA"/>
<path d="M178.87 147.969L236.249 114.826C237.028 114.39 237.596 114.741 237.596 115.605V116.142C237.572 116.61 237.437 117.065 237.203 117.471C236.969 117.877 236.642 118.222 236.249 118.478L178.855 151.613C178.076 152.041 177.508 151.691 177.508 150.834V150.297C177.535 149.829 177.673 149.374 177.91 148.97C178.147 148.565 178.476 148.222 178.87 147.969Z" fill="#FAFAFA"/>
<path d="M178.87 159.126L236.249 125.991C237.028 125.563 237.596 125.905 237.596 126.769V127.283C237.572 127.751 237.437 128.207 237.203 128.612C236.969 129.018 236.642 129.363 236.249 129.619L178.855 162.754C178.076 163.182 177.508 162.832 177.508 161.975V161.438C177.538 160.973 177.677 160.521 177.913 160.12C178.15 159.718 178.478 159.378 178.87 159.126Z" fill="#FAFAFA"/>
<path d="M178.87 170.282L236.249 137.147C237.028 136.719 237.596 137.061 237.596 137.926V138.463C237.572 138.931 237.437 139.386 237.203 139.792C236.969 140.198 236.642 140.543 236.249 140.798L178.855 173.934C178.076 174.362 177.508 174.011 177.508 173.155V172.618C177.534 172.149 177.671 171.692 177.908 171.286C178.145 170.88 178.475 170.536 178.87 170.282Z" fill="#FAFAFA"/>
<path d="M178.87 181.438L236.249 148.303C237.028 147.875 237.596 148.218 237.596 149.082V149.619C237.572 150.087 237.437 150.542 237.203 150.948C236.969 151.354 236.642 151.699 236.249 151.955L178.855 185.09C178.076 185.518 177.508 185.168 177.508 184.311V183.774C177.534 183.305 177.671 182.848 177.908 182.442C178.145 182.036 178.475 181.692 178.87 181.438Z" fill="#FAFAFA"/>
<path d="M178.87 192.595L236.249 159.46C237.028 159.031 237.596 159.374 237.596 160.238V160.76C237.572 161.228 237.437 161.683 237.203 162.089C236.969 162.495 236.642 162.84 236.249 163.095L178.855 196.23C178.076 196.659 177.508 196.308 177.508 195.452V194.915C177.537 194.448 177.675 193.995 177.912 193.592C178.148 193.189 178.477 192.847 178.87 192.595Z" fill="#FAFAFA"/>
<path d="M178.87 203.753L236.249 170.618C237.028 170.19 237.596 170.532 237.596 171.396V171.933C237.572 172.401 237.437 172.857 237.203 173.263C236.969 173.669 236.642 174.013 236.249 174.269L178.855 207.404C178.076 207.832 177.508 207.482 177.508 206.626V206.089C177.534 205.619 177.671 205.163 177.908 204.757C178.145 204.351 178.475 204.007 178.87 203.753Z" fill="#FAFAFA"/>
<path d="M178.87 214.908L236.249 181.78C237.028 181.352 237.596 181.703 237.596 182.559V183.096C237.572 183.564 237.437 184.019 237.203 184.425C236.969 184.831 236.642 185.176 236.249 185.432L178.855 218.567C178.076 218.995 177.508 218.645 177.508 217.788V217.251C177.533 216.781 177.67 216.323 177.907 215.915C178.143 215.508 178.474 215.162 178.87 214.908Z" fill="#FAFAFA"/>
<path d="M178.87 226.066L236.249 192.931C237.028 192.503 237.596 192.853 237.596 193.709V194.239C237.572 194.707 237.438 195.162 237.204 195.568C236.969 195.974 236.643 196.319 236.249 196.574L178.855 229.71C178.076 230.138 177.508 229.787 177.508 228.931V228.394C177.535 227.926 177.673 227.471 177.91 227.066C178.147 226.662 178.476 226.319 178.87 226.066Z" fill="#FAFAFA"/>
<path d="M178.87 237.222L236.249 204.087C237.028 203.659 237.596 204.009 237.596 204.866V205.403C237.572 205.871 237.438 206.327 237.204 206.733C236.97 207.138 236.643 207.483 236.249 207.738L178.863 240.874C178.084 241.302 177.516 240.951 177.516 240.095V239.558C177.542 239.089 177.678 238.634 177.913 238.228C178.149 237.822 178.477 237.477 178.87 237.222Z" fill="#FAFAFA"/>
<path d="M266.401 118.065H277.208C280.912 118.065 284.465 116.593 287.084 113.974C289.703 111.355 291.175 107.802 291.175 104.098C291.175 100.813 289.87 97.6619 287.547 95.3389C285.224 93.016 282.073 91.7109 278.788 91.7109C275.503 91.7109 272.352 93.016 270.029 95.3389C267.706 97.6619 266.401 100.813 266.401 104.098V118.065Z" fill="#263238"/>
<path d="M288.411 96.5912L291.409 94.9796C291.316 94.7756 291.182 94.5927 291.016 94.442C290.85 94.2914 290.655 94.1761 290.443 94.1033C290.231 94.0304 290.007 94.0015 289.783 94.0183C289.56 94.0351 289.342 94.0973 289.143 94.201C288.732 94.4239 288.425 94.7993 288.288 95.2463C288.151 95.6934 288.195 96.1764 288.411 96.5912Z" fill="#263238"/>
<path d="M288.201 96.9181L291.393 98.1092C291.481 97.9038 291.527 97.6826 291.527 97.4591C291.528 97.2356 291.483 97.0142 291.396 96.8084C291.309 96.6026 291.181 96.4166 291.02 96.2615C290.859 96.1064 290.668 95.9855 290.459 95.9059C290.025 95.7537 289.548 95.7738 289.128 95.962C288.708 96.1503 288.377 96.4925 288.201 96.9181Z" fill="#263238"/>
<path d="M277.511 128.366L262.462 127.72C261.161 125.89 261.161 121.055 262.532 119.498L279.185 119.95L277.511 128.366Z" fill="#0D6EFD"/>
<path d="M268.363 221.729C268.456 222.735 268.497 223.746 268.488 224.757V230.682H273.618V227.21C273.621 225.644 273.751 224.082 274.008 222.538L268.363 221.729Z" fill="#B16668"/>
<path d="M268.481 228.143V227.404C268.341 228.525 265.133 232.744 263.093 234.605C261.466 236.092 259.247 237.805 258.679 239.463C258.111 241.122 261.303 241.861 263.405 241.651C265.447 241.398 267.327 240.413 268.699 238.879C269.549 237.811 270.312 236.676 270.98 235.485C271.603 234.644 274.406 232.916 274.748 231.935C274.845 231.023 274.745 230.102 274.452 229.233C274.211 228.322 273.954 227.318 273.674 227.404V227.964C272.939 228.54 272.03 228.848 271.097 228.836C270.311 228.867 268.481 228.719 268.481 228.143Z" fill="#263238"/>
<path d="M273.619 227.965C272.885 228.541 271.975 228.848 271.042 228.837C270.264 228.837 268.457 228.72 268.457 228.144V227.404C268.317 228.525 265.11 232.745 263.07 234.606C262.68 234.964 262.252 235.33 261.824 235.711C260.96 236.677 261.209 237.518 263.241 237.689C265.273 237.86 267.064 236.638 268.605 234.746C270.147 232.854 273.619 227.965 273.619 227.965Z" fill="#B16668"/>
<path d="M284.114 230.465C284.215 231.711 284.215 233.011 284.239 233.579V239.504H289.393V236.031C289.392 234.467 289.52 232.904 289.774 231.36L284.114 230.465Z" fill="#B16668"/>
<path d="M284.23 236.958V236.218C284.083 237.339 280.883 241.559 278.835 243.42C277.208 244.907 274.989 246.619 274.429 248.27C273.868 249.92 277.044 250.676 279.154 250.465C281.194 250.212 283.072 249.227 284.441 247.694C285.293 246.625 286.058 245.49 286.73 244.299C287.352 243.459 290.155 241.73 290.49 240.749C290.595 239.838 290.494 238.915 290.194 238.048C289.961 237.137 289.696 236.132 289.416 236.218V236.779C288.681 237.354 287.772 237.662 286.839 237.651C286.076 237.682 284.223 237.534 284.23 236.958Z" fill="#263238"/>
<path d="M289.385 236.777C288.65 237.353 287.741 237.661 286.808 237.649C286.029 237.649 284.223 237.533 284.231 236.956V236.217C284.083 237.338 280.883 241.558 278.835 243.418C278.446 243.777 278.057 244.142 277.597 244.524C276.733 245.489 276.982 246.33 279.014 246.501C281.046 246.673 282.829 245.45 284.371 243.559C285.912 241.667 289.385 236.777 289.385 236.777Z" fill="#B16668"/>
<path d="M268.364 224.172C267.259 215.086 265.452 199.375 264.923 195.942C264.432 192.765 265.662 165.578 266.418 156.921L293.278 155.48C295.317 164.231 293.324 176.034 292.631 183.407C291.946 190.578 291.074 198.978 291.074 198.978C291.074 198.978 293.169 206.289 292.631 212.104C292.273 215.771 290.631 226.835 289.852 231.568C288.936 232.032 287.922 232.268 286.896 232.254C285.869 232.241 284.861 231.979 283.958 231.49C284.044 232.495 283.001 219.236 282.401 213.88C281.545 206.444 281.218 201.026 280.455 196.681C279.497 191.232 279.17 170.039 279.17 170.039L276.056 194.12C276.393 196.701 276.557 199.302 276.547 201.905C276.547 207.285 274.561 219.508 273.938 224.079C272.592 225.036 269.851 225.324 268.364 224.172Z" fill="#455A64"/>
<path d="M279.163 170.024C279.163 170.024 274.25 168.304 271.455 165.734C272.861 167.921 274.855 169.667 277.209 170.772L277.255 184.863L279.163 170.024Z" fill="#37474F"/>
<path d="M283.07 120.073C283.07 120.073 290.365 120.914 291.237 121.304C286.792 126.169 291.525 130.202 291.525 130.202L288.139 145.104C291.058 148.833 292.724 151.714 293.425 156.159C290.311 161.671 272.739 162.434 266.3 158.331C266.861 150.647 268.114 145.143 267.694 142.83C264.634 133.394 265.584 131.417 265.872 129.26C266.433 125.048 270.614 121.381 273.004 119.84H275.23L283.07 120.073Z" fill="#F0F0F0"/>
<path d="M270.505 97.7754C269.197 98.5539 267.577 101.839 267.741 108.737C267.873 114.584 269.773 116.025 270.723 116.445C271.673 116.865 273.51 116.609 275.293 116.305V119.816C275.293 119.816 272.825 122.681 272.957 124.293C273.09 125.904 276.515 126.278 278.827 124.705C280.495 123.412 281.933 121.846 283.078 120.073L283.039 112.007C283.039 112.007 284.083 113.027 285.866 111.47C287.337 110.185 287.828 108.013 286.644 106.853C286.349 106.576 285.993 106.373 285.605 106.261C285.216 106.148 284.807 106.129 284.41 106.205C284.013 106.281 283.639 106.45 283.32 106.698C283 106.946 282.744 107.266 282.572 107.632C282.572 107.632 281.584 104.884 277.473 103.537C273.79 102.369 271.774 100.96 270.505 97.7754Z" fill="#B16668"/>
<path d="M274.632 107.266C274.63 107.458 274.701 107.644 274.829 107.788C274.956 107.932 275.133 108.023 275.324 108.044C275.523 108.045 275.714 107.969 275.859 107.833C276.004 107.697 276.091 107.511 276.103 107.312C276.117 107.211 276.11 107.107 276.082 107.008C276.054 106.909 276.005 106.817 275.94 106.738C275.874 106.659 275.793 106.594 275.701 106.549C275.609 106.503 275.508 106.476 275.406 106.472C275.303 106.467 275.2 106.483 275.105 106.52C275.009 106.557 274.921 106.614 274.849 106.686C274.776 106.759 274.719 106.846 274.681 106.941C274.644 107.037 274.627 107.14 274.632 107.242V107.266Z" fill="#263238"/>
<path d="M274.436 112.227L272.731 112.772C272.762 112.885 272.815 112.992 272.888 113.085C272.96 113.178 273.051 113.255 273.154 113.312C273.258 113.368 273.371 113.404 273.489 113.415C273.606 113.427 273.725 113.414 273.837 113.379C274.067 113.302 274.258 113.139 274.37 112.924C274.482 112.709 274.506 112.459 274.436 112.227Z" fill="#9A4A4D"/>
<path d="M268.606 105.008L270.093 103.981C270.03 103.88 269.948 103.793 269.851 103.726C269.754 103.658 269.645 103.611 269.529 103.587C269.413 103.563 269.294 103.562 269.178 103.586C269.062 103.609 268.952 103.656 268.855 103.724C268.658 103.866 268.523 104.078 268.477 104.317C268.43 104.555 268.476 104.803 268.606 105.008Z" fill="#263238"/>
<path d="M276.772 105.553L275.285 104.526C275.347 104.425 275.43 104.338 275.527 104.271C275.623 104.203 275.733 104.156 275.849 104.131C275.965 104.107 276.084 104.107 276.2 104.131C276.316 104.154 276.426 104.201 276.523 104.269C276.72 104.411 276.855 104.623 276.901 104.862C276.948 105.1 276.901 105.348 276.772 105.553Z" fill="#263238"/>
<path d="M268.947 106.737C268.946 106.929 269.016 107.115 269.144 107.259C269.272 107.403 269.449 107.494 269.64 107.515C269.837 107.516 270.027 107.441 270.172 107.307C270.317 107.172 270.405 106.988 270.418 106.791C270.433 106.689 270.425 106.586 270.397 106.487C270.369 106.388 270.321 106.296 270.255 106.217C270.19 106.138 270.108 106.073 270.016 106.027C269.924 105.981 269.824 105.955 269.721 105.95C269.618 105.945 269.516 105.962 269.42 105.999C269.324 106.036 269.237 106.092 269.164 106.165C269.091 106.237 269.034 106.324 268.997 106.42C268.96 106.516 268.943 106.618 268.947 106.721V106.737Z" fill="#263238"/>
<path d="M272.412 106.316L272.296 110.739L269.968 110.022L272.412 106.316Z" fill="#9A4A4D"/>
<path d="M275.262 116.304C277.138 116.063 281.007 114.95 281.615 113.424C281.371 114.197 280.895 114.876 280.252 115.37C279.1 116.359 275.262 117.48 275.262 117.48V116.304Z" fill="#9A4A4D"/>
<path d="M289.649 138.447L283.429 147.533L288.139 145.104L289.649 138.447Z" fill="#E0E0E0"/>
<path d="M286.768 123.287L272.17 138.383C272.17 138.383 257.837 136.973 252.971 135.58C251.414 135.136 250.199 133.034 249.857 131.267C249.814 130.803 249.626 130.365 249.32 130.015C249.014 129.664 248.605 129.418 248.152 129.313V132.855C248.027 133.75 247.591 134.21 246.314 134.241C241.394 134.35 239.113 132.855 238.529 135.525C238.147 137.23 238.887 139.169 242.134 140.064C246.696 141.31 249.218 140.687 251.99 141.38C254.131 141.909 269.071 144.751 272.007 145.39C273.564 145.732 274.739 145.623 276.429 143.957C278.118 142.291 290.746 130.457 290.746 130.457C294.639 126.564 293.487 122.57 291.322 121.379C289.968 120.639 288.489 121.511 286.768 123.287Z" fill="#B16668"/>
<path d="M291.237 121.304C292.179 121.685 293.332 122.69 293.425 125.29C293.518 127.89 291.595 130.257 289.33 132.967C287.064 135.676 286.379 136.392 286.379 136.392C286.379 136.392 280.649 134.306 279.676 130.047C279.676 130.047 283.997 125.469 285.289 124.005C286.582 122.542 288.964 120.276 291.237 121.304Z" fill="#0D6EFD"/>
<path d="M261.651 22.7866L267.062 25.9008C267.031 25.6633 267.015 25.424 267.015 25.1845V23.6274C267.015 20.8402 268.977 19.7347 271.39 21.1049C272.428 21.7453 273.318 22.6 273.999 23.6118C274.396 20.1006 277.113 18.8004 280.492 20.7234C284.104 22.8177 287.039 27.8939 287.039 32.0669V34.4026C287.063 35.3393 286.871 36.2689 286.479 37.1197L290.979 39.7123C291.684 40.174 292.272 40.795 292.694 41.5252C293.116 42.2554 293.36 43.0745 293.408 43.9164C293.408 45.4735 292.318 46.0964 290.979 45.3178L261.651 28.4077C260.944 27.9473 260.355 27.3267 259.933 26.5962C259.511 25.8657 259.267 25.046 259.222 24.2035C259.222 22.6387 260.312 22.008 261.651 22.7866Z" fill="#EBEBEB" fill-opacity="0.15"/>
<path d="M238.49 38.5285L242.569 40.8642C242.569 40.6773 242.569 40.4983 242.569 40.3192V39.1358C242.569 37.0337 244.049 36.1773 245.87 37.2361C246.657 37.7151 247.33 38.3609 247.84 39.128C248.136 36.481 250.176 35.4922 252.737 36.9481C254.178 37.8848 255.377 39.1489 256.236 40.6372C257.095 42.1256 257.59 43.796 257.681 45.5121V47.2794C257.698 47.9876 257.555 48.6904 257.261 49.3348L260.655 51.289C261.188 51.6377 261.631 52.1069 261.949 52.6588C262.267 53.2106 262.45 53.8295 262.485 54.4655C262.485 55.6333 261.667 56.1082 260.655 55.5243L238.521 42.7405C237.987 42.3939 237.543 41.9264 237.223 41.3758C236.904 40.8253 236.719 40.2072 236.683 39.5718C236.652 38.4429 237.478 37.968 238.49 38.5285Z" fill="#EBEBEB" fill-opacity="0.15"/>
</g>
<defs>
<filter id="filter0_d_400_4553" x="0" y="145.195" width="336.755" height="179.816" filterUnits="userSpaceOnUse" color-interpolation-filters="sRGB">
<feFlood flood-opacity="0" result="BackgroundImageFix"/>
<feColorMatrix in="SourceAlpha" type="matrix" values="0 0 0 0 0 0 0 0 0 0 0 0 0 0 0 0 0 0 127 0" result="hardAlpha"/>
<feOffset dy="4"/>
<feGaussianBlur stdDeviation="2"/>
<feComposite in2="hardAlpha" operator="out"/>
<feColorMatrix type="matrix" values="0 0 0 0 0 0 0 0 0 0 0 0 0 0 0 0 0 0 0.05 0"/>
<feBlend mode="normal" in2="BackgroundImageFix" result="effect1_dropShadow_400_4553"/>
<feBlend mode="normal" in="SourceGraphic" in2="effect1_dropShadow_400_4553" result="shape"/>
</filter>
</defs>
</svg>
