<svg width="40" height="40" viewBox="0 0 40 40" fill="none" xmlns="http://www.w3.org/2000/svg">
<circle cx="20" cy="20" r="20" fill="2da883"/>
<path d="M20.1875 19.5C21.5799 19.5 22.9152 18.9469 23.8998 17.9623C24.8844 16.9777 25.4375 15.6424 25.4375 14.25C25.4375 12.8576 24.8844 11.5223 23.8998 10.5377C22.9152 9.55312 21.5799 9 20.1875 9C18.7951 9 17.4598 9.55312 16.4752 10.5377C15.4906 11.5223 14.9375 12.8576 14.9375 14.25C14.9375 15.6424 15.4906 16.9777 16.4752 17.9623C17.4598 18.9469 18.7951 19.5 20.1875 19.5ZM18.3131 21.4688C14.273 21.4688 11 24.7418 11 28.7818C11 29.4545 11.5455 30 12.2182 30H28.1568C28.8295 30 29.375 29.4545 29.375 28.7818C29.375 24.7418 26.102 21.4688 22.0619 21.4688H18.3131Z" fill="white"/>
</svg>
